<?xml version="1.0" standalone="no"?><!DOCTYPE svg PUBLIC "-//W3C//DTD SVG 1.1//EN" "http://www.w3.org/Graphics/SVG/1.1/DTD/svg11.dtd"><svg t="1535441640878" class="icon" style="" viewBox="0 0 1024 1024" version="1.1" xmlns="http://www.w3.org/2000/svg" p-id="6428" xmlns:xlink="http://www.w3.org/1999/xlink" width="128" height="128"><defs><style type="text/css"></style></defs><path d="M0 146.724571C0 65.682286 65.609143 0 146.724571 0h730.550858C958.317714 0 1024 65.609143 1024 146.724571v730.550858A146.651429 146.651429 0 0 1 877.275429 1024H146.724571A146.651429 146.651429 0 0 1 0 877.275429V146.724571z m419.108571 71.533715v507.172571c0.950857 26.697143-7.094857 48.274286-24.283428 65.024l37.156571 45.714286c12.434286-11.483429 25.965714-21.942857 40.740572-31.451429 34.304-21.942857 82.358857-49.737143 144.310857-83.602285a566.345143 566.345143 0 0 1-10.752-55.003429c-40.96 24.283429-85.211429 49.737143-132.827429 76.434286V490.422857h153.892572c10.459429 134.290286 37.741714 232.594286 81.773714 294.985143 31.451429 42.861714 64.804571 64.365714 99.986286 64.365714 31.012571 0 50.468571-21.211429 58.587428-63.634285 5.266286-25.746286 10.020571-59.757714 14.336-102.107429a374.564571 374.564571 0 0 1-51.492571-19.309714c-2.852571 39.058286-6.582857 72.118857-11.410286 99.254857-2.852571 16.237714-8.777143 24.283429-17.846857 24.283428-12.434286 0-28.306286-11.410286-47.835429-34.230857-38.326857-48.128-62.610286-136.045714-72.850285-263.606857h188.562285v-51.419428H677.302857a3869.696 3869.696 0 0 1-6.802286-181.76c57.636571-4.315429 120.685714-9.654857 189.293715-16.091429l-20.041143-53.613714c-157.110857 21.430857-297.325714 31.670857-420.717714 30.72zM166.985143 543.305143l7.168 62.902857c28.818286-14.116571 56.393143-27.648 82.870857-40.813714v204.288c0 20.992-9.508571 31.451429-28.598857 31.451428-12.434286 0-30.939429-0.950857-55.734857-2.852571 3.803429 20.992 6.656 40.009143 8.630857 57.124571 25.673143 0.512 47.542857 0.731429 65.682286 0.731429 42.422857 0 63.634286-26.697143 63.634285-80.018286V539.794286c28.233143-13.604571 55.149714-26.404571 80.676572-38.546286a721.408 721.408 0 0 1-5.778286-57.197714c-24.722286 12.434286-49.737143 24.429714-74.971429 36.059428V341.138286H391.314286V291.108571H310.564571V159.744h-53.540571V291.108571H172.032v50.029715h84.992V504.685714c-29.769143 13.385143-59.757714 26.185143-89.965714 38.619429z m449.316571-282.550857c1.901714 65.536 4.534857 124.928 7.826286 178.249143h-150.674286V266.825143c42.422857-0.950857 89.965714-2.925714 142.848-6.070857z m-55.734857 521.069714c27.136 27.648 51.419429 55.515429 72.850286 83.602286l40.740571-33.572572a941.275429 941.275429 0 0 0-77.165714-79.286857l-36.425143 29.257143z" fill="#41B035" p-id="6429" data-spm-anchor-id="a313x.7781069.0.i9" class="selected"></path></svg>