<?xml version="1.0" encoding="utf-8"?>
<!-- Generator: Adobe Illustrator 15.0.0, SVG Export Plug-In . SVG Version: 6.00 Build 0)  -->
<!DOCTYPE svg PUBLIC "-//W3C//DTD SVG 1.1//EN" "http://www.w3.org/Graphics/SVG/1.1/DTD/svg11.dtd">
<svg version="1.1" id="图层_1" xmlns="http://www.w3.org/2000/svg" xmlns:xlink="http://www.w3.org/1999/xlink" x="0px" y="0px"
	 width="128px" height="128px" viewBox="0 0 128 128" enable-background="new 0 0 128 128" xml:space="preserve">
<path fill="#183F85" d="M89.472,30.012c16.987,16.478,16.987,43.195,0.002,59.675c-16.983,16.48-44.523,16.473-61.509,0
	c-6.059-5.881-9.955-13.066-11.693-20.627c0.931,10.516,5.539,20.781,13.834,28.828c18.676,18.121,48.959,18.121,67.639-0.002
	c18.676-18.121,18.676-47.502,0-65.621c-7.876-7.64-17.813-12.057-28.07-13.254C76.929,20.833,83.79,24.499,89.472,30.012"/>
<path fill="#3964AA" d="M50.936,23.271c20.293,0,36.746,15.961,36.746,35.644c0,19.692-16.452,35.647-36.746,35.647
	c-7.239,0-13.992-2.033-19.68-5.539c7.026,5.74,16.103,9.203,26.011,9.203c22.313,0,40.403-17.551,40.403-39.201
	c0-21.647-18.09-39.199-40.403-39.199c-9.409,0-18.064,3.118-24.928,8.349C37.795,25.061,44.151,23.271,50.936,23.271"/>
<path fill="#4974B3" d="M24.809,41.786c11.79-11.444,30.914-11.444,42.709,0c11.794,11.444,11.794,29.995,0,41.438
	c-4.207,4.086-9.347,6.709-14.756,7.879c7.522-0.627,14.868-3.734,20.63-9.318c12.971-12.585,12.971-32.985,0-45.572
	c-12.971-12.583-33.999-12.582-46.974,0c-5.464,5.306-8.629,12-9.485,18.913C18.24,50.239,20.864,45.615,24.809,41.786"/>
<path fill="#F5AC38" d="M46.493,66.604c0.002-7.924,6.423-14.342,14.344-14.343c1.387,0,2.516,1.125,2.516,2.513
	c0,1.388-1.128,2.515-2.516,2.515c-5.143,0.009-9.305,4.171-9.315,9.315c0.01,5.143,4.172,9.305,9.315,9.314
	c1.387,0,2.516,1.127,2.516,2.516c0,1.387-1.128,2.514-2.516,2.514C52.916,80.943,46.495,74.525,46.493,66.604"/>
<path fill="#F5AC38" d="M28.312,78.434c0-1.391,1.126-2.518,2.516-2.518c5.144-0.008,9.306-4.17,9.314-9.313
	c-0.008-5.144-4.17-9.306-9.314-9.313c-1.39,0-2.516-1.128-2.516-2.517c0-1.389,1.126-2.516,2.516-2.516
	c7.922,0.004,14.343,6.422,14.344,14.346c-0.001,7.922-6.421,14.34-14.344,14.344v0.002C29.438,80.949,28.312,79.82,28.312,78.434"
	/>
<path fill="#183F85" d="M52.403,47.875c0,3.994-3.237,7.231-7.234,7.231c-3.99,0-7.229-3.237-7.229-7.231
	c0-3.994,3.239-7.232,7.229-7.232C49.167,40.643,52.403,43.881,52.403,47.875"/>
</svg>
