<?xml version="1.0" standalone="no"?><!DOCTYPE svg PUBLIC "-//W3C//DTD SVG 1.1//EN" "http://www.w3.org/Graphics/SVG/1.1/DTD/svg11.dtd"><svg t="1538023794039" class="icon" style="" viewBox="0 0 1219 1024" version="1.1" xmlns="http://www.w3.org/2000/svg" p-id="3413" xmlns:xlink="http://www.w3.org/1999/xlink" width="152.375" height="128"><defs><style type="text/css"></style></defs><path d="M980.114286 838.704762c14.628571 14.628571 39.009524 24.380952 58.514285 24.380952h68.266667c24.380952 0 43.885714-9.752381 58.514286-24.380952 14.628571-14.628571 24.380952-39.009524 24.380952-58.514286v-234.057143c0-19.504762-9.752381-43.885714-24.380952-58.514285-14.628571-14.628571-58.514286-24.380952-58.514286-24.380953-9.752381-92.647619-53.638095-175.542857-117.028571-243.809524-73.142857-73.142857-175.542857-117.028571-287.695238-117.028571-107.27619 0-209.67619 43.885714-287.695239 117.028571-68.266667 68.266667-107.27619 146.285714-117.028571 243.809524 0 0-43.885714 4.87619-63.390476 24.380953-14.628571 14.628571-24.380952 39.009524-24.380953 58.514285v209.676191c0 58.514286 29.257143 102.4 82.895239 136.533333 53.638095 34.133333 131.657143 53.638095 195.047619 53.638095h156.038095c9.752381 19.504762 24.380952 39.009524 43.885714 53.638096 24.380952 14.628571 48.761905 19.504762 78.019048 9.752381 24.380952-4.87619 48.761905-24.380952 63.390476-48.761905 14.628571-24.380952 19.504762-48.761905 9.752381-78.019048 0-4.87619-4.87619-14.628571-4.876191-19.504762 43.885714-19.504762 82.895238-48.761905 117.028572-82.895238 9.752381 29.257143 19.504762 48.761905 29.257143 58.514286z" fill="#B4CCFF" p-id="3414" data-spm-anchor-id="a313x.7781069.0.i20" class="selected"></path><path d="M507.12381 848.457143c-4.87619 9.752381-4.87619 14.628571-4.876191 14.628571h-170.666667c-58.514286 0-126.780952-19.504762-170.666666-48.761904-34.133333-24.380952-53.638095-53.638095-53.638096-87.771429v-224.304762c0-4.87619 0-9.752381 4.876191-9.752381 4.87619-4.87619 9.752381-4.87619 14.628571-4.87619h73.142858c4.87619 0 9.752381 0 9.75238 4.87619 4.87619 4.87619 4.87619 9.752381 4.876191 9.752381v229.180952c0 19.504762 14.628571 34.133333 34.133333 34.133334 19.504762 0 34.133333-14.628571 34.133334-34.133334v-229.180952c0-24.380952-9.752381-43.885714-24.380953-63.390476-19.504762-14.628571-39.009524-24.380952-63.390476-24.380953h-9.752381v9.752381h9.752381c9.752381-82.895238 43.885714-160.914286 102.4-219.428571 68.266667-68.266667 156.038095-107.27619 253.561905-107.27619s185.295238 39.009524 253.561905 107.27619c58.514286 58.514286 92.647619 136.533333 102.4 219.428571l9.752381-9.752381h-14.628572c-24.380952 0-48.761905 9.752381-63.390476 24.380953-14.628571 19.504762-24.380952 39.009524-24.380952 63.390476v253.561905c0 24.380952 9.752381 48.761905 24.380952 63.390476 19.504762 14.628571 39.009524 24.380952 63.390476 24.380952h73.142857c24.380952 0 48.761905-9.752381 63.390476-24.380952 14.628571-14.628571 24.380952-39.009524 24.380953-63.390476v-253.561905c0-24.380952-9.752381-43.885714-24.380953-63.390476-19.504762-14.628571-39.009524-24.380952-63.390476-24.380953h-4.87619v9.752381h9.752381c-9.752381-102.4-53.638095-195.047619-126.780953-268.190476-82.895238-82.895238-190.171429-126.780952-307.2-126.780952s-224.304762 43.885714-307.2 126.780952c-73.142857 73.142857-117.028571 165.790476-126.780952 268.190476l9.752381-9.752381h-9.752381c-24.380952 0-48.761905 9.752381-63.390476 24.380953-14.628571 19.504762-24.380952 39.009524-24.380953 63.390476v224.304762c0 63.390476 29.257143 112.152381 87.771429 146.285714 58.514286 34.133333 136.533333 58.514286 209.67619 58.514286h165.790477c9.752381 24.380952 24.380952 43.885714 48.761904 58.514286 24.380952 14.628571 53.638095 19.504762 82.895238 9.752381 29.257143-4.87619 48.761905-24.380952 63.390477-48.761905 14.628571-24.380952 19.504762-53.638095 9.752381-82.895238-4.87619-29.257143-24.380952-48.761905-48.761905-63.390476-24.380952-14.628571-53.638095-19.504762-78.019048-9.752381-19.504762 9.752381-43.885714 29.257143-58.514285 53.638095z m472.990476-360.838095l9.752381 4.87619c4.87619 4.87619 4.87619 4.87619 4.87619 9.752381v253.561905c0 4.87619 0 9.752381-4.87619 9.752381-4.87619 4.87619-4.87619 4.87619-9.752381 4.87619h-73.142857c-4.87619 0-9.752381 0-9.752381-4.87619-4.87619-4.87619-4.87619-4.87619-4.876191-9.752381v-253.561905c0-4.87619 0-9.752381 4.876191-9.752381 4.87619-4.87619 9.752381-4.87619 14.628571-4.87619h68.266667z m-565.638096-14.628572c34.133333 0 58.514286-24.380952 58.514286-58.514286s-24.380952-58.514286-58.514286-58.514285-58.514286 24.380952-58.514285 58.514285c0 29.257143 24.380952 58.514286 58.514285 58.514286z m273.066667 0c34.133333 0 58.514286-24.380952 58.514286-58.514286s-24.380952-58.514286-58.514286-58.514285-58.514286 24.380952-58.514286 58.514285c0 29.257143 24.380952 58.514286 58.514286 58.514286z" fill="#3290FF" p-id="3415" data-spm-anchor-id="a313x.7781069.0.i17" class=""></path></svg>