<?xml version="1.0" standalone="no"?><!DOCTYPE svg PUBLIC "-//W3C//DTD SVG 1.1//EN" "http://www.w3.org/Graphics/SVG/1.1/DTD/svg11.dtd"><svg t="1535534568230" class="icon" style="" viewBox="0 0 1024 1024" version="1.1" xmlns="http://www.w3.org/2000/svg" p-id="13724" xmlns:xlink="http://www.w3.org/1999/xlink" width="128" height="128"><defs><style type="text/css"></style></defs><path d="M877.5 369.6h-35.1C809.6 213.5 671.2 99.2 508.8 99.2c-162.6 0-300.8 114.2-333.6 270.3h-28.7c-22.6 0-41 18.4-41 41V649c0 22.6 18.4 41 41 41h101.2c22.6 0 41-18.4 41-41V410.5c0-22.6-18.4-41-41-41h-30.3c32-133 151.3-229.4 291.4-229.4 139.9 0 259.4 96.5 291.4 229.4h-23.9c-22.6 0-41 18.4-41 41V649c0 22.6 18.4 41 41 41h28.9c-41 123.1-137.2 193.8-264.7 193.8h-45.8c-11.3 0-20.5 9.2-20.5 20.5s9.2 20.5 20.5 20.5h45.8c145.4 0 259.4-84.2 305-225.3 1-3.2 4-6.3 3.5-9.4h28.5c22.6 0 41-18.4 41-41V410.5c-0.1-22.5-18.4-40.9-41-40.9zM247.7 649.1H146.5V390v20.5h101.2v238.6z m629.8 0H776.3V410.5h101.2v238.6z" fill="#FF9000" p-id="13725"></path></svg>