<?xml version="1.0" standalone="no"?><!DOCTYPE svg PUBLIC "-//W3C//DTD SVG 1.1//EN" "http://www.w3.org/Graphics/SVG/1.1/DTD/svg11.dtd"><svg t="1537343315076" class="icon" style="" viewBox="0 0 1423 1024" version="1.1" xmlns="http://www.w3.org/2000/svg" p-id="3118" xmlns:xlink="http://www.w3.org/1999/xlink" width="88.9375" height="64"><defs><style type="text/css"></style></defs><path d="M71.931177 675.920085c0 113.866761 216.739993 206.256097 484.29776 206.256097s484.44337-92.31653 484.516175-206.183292c0-113.866761-216.885603-206.256097-484.370565-206.256097S71.931177 562.053324 71.931177 675.920085z" fill="#FFB600" p-id="3119"></path><path d="M71.931177 684.365446c0 113.866761 216.739993 206.256097 484.29776 206.256097s484.44337-92.60775 484.44337-206.256097c0-113.866761-216.885603-206.256097-484.370565-206.256097S71.931177 570.134661 71.931177 684.365446z" fill="#FFB600" p-id="3120"></path><path d="M71.931177 692.082759c0 113.866761 216.739993 206.256097 484.29776 206.256096s484.44337-92.31653 484.516175-206.183292c0-113.866761-216.885603-206.256097-484.370565-206.256096S71.931177 578.215997 71.931177 692.082759z" fill="#FF8F3B" p-id="3121"></path><path d="M71.931177 668.566797c0 113.866761 216.739993 206.256097 484.29776 206.256097s484.44337-92.31653 484.516175-206.183292c0-113.866761-216.885603-206.256097-484.370565-206.256097S71.931177 554.700036 71.931177 668.566797z" fill="#FCDC06" p-id="3122"></path><path d="M132.140775 616.51134c0 113.866761 216.739993 206.256097 484.29776 206.256097s484.44337-92.31653 484.516175-206.183292c0-113.866761-216.885603-206.256097-484.370565-206.256097S132.140775 502.353359 132.140775 616.51134z" fill="#FFB600" p-id="3123"></path><path d="M132.140775 624.592677c0 113.866761 216.739993 206.256097 484.29776 206.256097s484.44337-92.31653 484.516175-206.183292c0-113.866761-216.885603-206.256097-484.370565-206.256097S132.140775 510.653111 132.140775 624.592677z" fill="#FFB600" p-id="3124"></path><path d="M132.140775 632.674014c0 113.866761 216.739993 206.256097 484.29776 206.256096s484.44337-92.31653 484.516175-206.183292c0-113.866761-216.885603-206.256097-484.370565-206.256096S132.140775 518.734447 132.140775 632.674014z" fill="#FF8F3B" p-id="3125"></path><path d="M132.140775 608.430004c0 113.866761 216.739993 206.256097 484.29776 206.256096s484.44337-92.31653 484.516175-206.183292c0-113.866761-216.885603-206.256097-484.370565-206.256096S132.140775 494.490437 132.140775 608.430004z" fill="#FCDC06" p-id="3126"></path><path d="M84.380803 548.220405c0 113.866761 216.885603 206.256097 484.370566 206.256097s484.370565-92.31653 484.370565-206.256097S836.309136 342.182723 568.824173 342.182723 84.380803 434.353644 84.380803 548.220405z" fill="#FFB600" p-id="3127"></path><path d="M84.380803 556.301742c0 113.866761 216.885603 206.256097 484.370566 206.256097s484.370565-92.31653 484.370565-206.256097-216.812798-206.256097-484.297761-206.256097-484.44337 92.389335-484.44337 206.256097z" fill="#FFB600" p-id="3128"></path><path d="M84.380803 564.383079c0 113.866761 216.885603 206.256097 484.370566 206.256096s484.370565-92.31653 484.370565-206.256096-216.812798-206.256097-484.297761-206.256097-484.44337 92.389335-484.44337 206.256097z" fill="#FF8F3B" p-id="3129"></path><path d="M84.380803 540.867117c0 113.866761 216.885603 206.256097 484.370566 206.256097s484.370565-92.31653 484.370565-206.256097S836.309136 334.90224 568.824173 334.90224 84.380803 427.000355 84.380803 540.867117z" fill="#FCDC06" p-id="3130"></path><path d="M76.299467 436.829008c0 113.866761 216.885603 206.256097 484.370565 206.256097S1045.113402 550.55016 1045.113402 436.829008 828.2278 230.427302 560.597227 230.427302 76.299467 322.816637 76.299467 436.829008z" fill="#FFB600" p-id="3131"></path><path d="M76.299467 444.764735c0 113.866761 216.885603 206.256097 484.370565 206.256097s484.370565-92.31653 484.370565-206.256097S828.2278 238.508638 560.597227 238.508638 76.299467 330.825169 76.299467 444.764735z" fill="#FFB600" p-id="3132"></path><path d="M76.299467 452.846072c0 113.866761 216.885603 206.256097 484.370565 206.256097s484.370565-92.31653 484.370565-206.256097S828.2278 246.589975 560.597227 246.589975 76.299467 338.906506 76.299467 452.846072z" fill="#FFB600" p-id="3133"></path><path d="M76.299467 428.602062C76.299467 542.541628 293.185069 634.858159 560.597227 634.858159s484.370565-92.31653 484.370565-206.256097S828.2278 222.345965 560.597227 222.345965 76.299467 314.7353 76.299467 428.602062z" fill="#FCDC06" p-id="3134"></path><path d="M40.333878 344.949307c0 113.721152 216.812798 206.256097 484.370566 206.256096S1009.075009 458.670459 1009.147814 345.022112c0-113.866761-216.885603-206.256097-484.370566-206.256097S40.333878 231.00974 40.333878 344.949307z" fill="#FFB600" p-id="3135"></path><path d="M40.333878 353.030643c0 113.866761 216.812798 206.256097 484.297761 206.256097s484.44337-92.31653 484.516175-206.183292c0-113.866761-216.885603-206.256097-484.370566-206.256096S40.333878 239.091077 40.333878 353.030643z" fill="#FFB600" p-id="3136"></path><path d="M40.333878 361.11198c0 113.866761 216.812798 206.256097 484.297761 206.256097s484.44337-92.31653 484.516175-206.256097c0-113.866761-216.885603-206.256097-484.370566-206.256097S40.333878 247.536438 40.333878 361.11198z" fill="#FFB600" p-id="3137"></path><path d="M40.333878 336.86797c0 113.866761 216.812798 206.256097 484.297761 206.256097s484.44337-92.31653 484.44337-206.183292-216.885603-206.256097-484.370565-206.256097S40.333878 223.001209 40.333878 336.86797z" fill="#FCDC06" p-id="3138"></path><path d="M76.299467 436.829008c0 113.866761 216.885603 206.256097 484.370565 206.256097S1045.113402 550.55016 1045.113402 436.829008 828.2278 230.427302 560.597227 230.427302 76.299467 322.816637 76.299467 436.829008z" fill="#FFB600" p-id="3139"></path><path d="M76.299467 444.764735c0 113.866761 216.885603 206.256097 484.370565 206.256097s484.370565-92.31653 484.370565-206.256097S828.2278 238.508638 560.597227 238.508638 76.299467 330.825169 76.299467 444.764735z" fill="#FFB600" p-id="3140"></path><path d="M76.299467 452.846072c0 113.866761 216.885603 206.256097 484.370565 206.256097s484.370565-92.31653 484.370565-206.256097S828.2278 246.589975 560.597227 246.589975 76.299467 338.906506 76.299467 452.846072z" fill="#FF8F3B" p-id="3141"></path><path d="M76.299467 428.602062C76.299467 542.541628 293.185069 634.858159 560.597227 634.858159s484.370565-92.31653 484.370565-206.256097S828.2278 222.345965 560.597227 222.345965 76.299467 314.7353 76.299467 428.602062z" fill="#FCDC06" p-id="3142"></path><path d="M0 361.11198c0 113.866761 216.885603 206.183292 484.370565 206.183292s484.370565-92.31653 484.370565-206.256097-216.812798-206.183292-484.370565-206.183292S0 247.536438 0 361.11198z" fill="#FFB600" p-id="3143"></path><path d="M0 369.193317C0 483.060078 216.885603 575.158194 484.370565 575.158194s484.370565-92.31653 484.370565-206.256097-216.812798-205.964877-484.370565-205.964877S0 255.25375 0 369.193317z" fill="#FFB600" p-id="3144"></path><path d="M0 377.201849c0 113.939566 216.885603 206.256097 484.370565 206.256096s484.370565-92.31653 484.370565-206.256096-216.812798-206.183292-484.370565-206.183292S0 263.335087 0 377.201849z" fill="#FF8F3B" p-id="3145"></path><path d="M0 353.030643c0 113.866761 216.885603 206.183292 484.370565 206.183292s484.370565-92.31653 484.370565-206.256096-216.812798-206.183292-484.370565-206.183292S0 239.091077 0 353.030643z" fill="#FCDC06" p-id="3146"></path><path d="M135.781017 241.493637c0 113.866761 216.885603 206.256097 484.370565 206.256096s484.370565-92.31653 484.370565-206.256096S887.709349 35.23754 620.151582 35.23754 135.781017 127.55407 135.781017 241.493637z" fill="#FFB600" p-id="3147"></path><path d="M135.781017 249.502169c0 113.866761 216.885603 206.256097 484.370565 206.256096s484.370565-92.31653 484.370565-206.256096S887.709349 43.318877 620.151582 43.318877 135.781017 135.635407 135.781017 249.502169z" fill="#FFB600" p-id="3148"></path><path d="M135.781017 256.855457c0 113.866761 216.885603 206.256097 484.370565 206.256097s484.370565-92.31653 484.370565-206.256097S887.709349 50.963384 620.151582 50.963384 135.781017 142.988695 135.781017 256.855457z" fill="#FF8F3B" p-id="3149"></path><path d="M135.781017 233.4123c0 113.866761 216.885603 206.256097 484.370565 206.256097s484.370565-92.31653 484.370565-206.256097S887.709349 27.156203 620.151582 27.156203 135.781017 119.472734 135.781017 233.4123z" fill="#FCDC06" p-id="3150"></path><path d="M482.914469 164.393317l61.665695 35.965588a354.48674 354.48674 0 0 0 41.862779 21.84145v0.728049c-19.074867 5.897192-63.121792 23.515962-129.883825 50.963384l-10.265481 41.86278 146.046498-61.665695-5.169143 72.804835 37.421685 6.62524 2.184145-88.09385 50.963384 4.36829 3.640242 94.646285 46.667899 8.59097-9.537433-99.815428 93.190188 8.081337-9.537433-45.503022-87.365802-4.36829-6.62524-69.018983-35.23754 2.184145 2.912193 66.033985-48.415215-2.184145 1.456097-63.121792-29.121934 0.728048-3.640242 51.400214-106.586278-60.209599z" fill="#FF8F3B" p-id="3151"></path><path d="M545.308212 618.841095a405.158905 405.158905 0 0 0 810.245005 0A405.158905 405.158905 0 0 0 545.308212 618.841095z" fill="#FCDC06" p-id="3152"></path><path d="M1047.297547 403.630004l-63.84984 117.434198c-17.61877 32.325347-26.428155 55.040455-30.796445 62.393743h-0.728048q-17.61877-33.053395-96.903235-176.114895h-60.937647l113.793957 190.821472h-95.374334v43.682901h117.434199v51.400213h-117.507004v51.400213h117.434199v88.09385h43.682901v-88.09385h110.08091v-51.108994h-109.716886v-51.327408h110.08091v-43.682901h-91.006044L1108.235194 407.707074h-60.937647z" fill="#FE881F" p-id="3153"></path><path d="M1295.343619 28.6123l-38.877782 39.60583q-15.434625 16.526697-19.802915 21.841451h-0.728048c-1.456097-11.721578-7.280483-39.60583-16.890722-83.652756L1194.800142 0l21.841451 89.549947-36.402418-10.265482-5.169143 16.890722 42.590828 12.449626-6.62524 23.515962-42.590828-12.449627-5.169143 16.890722 42.590828 12.449627-9.537433 33.781443 21.259011 5.897192 9.537434-33.781444 41.134731 11.721579 5.169144-16.890722-41.207537-11.430359 6.62524-23.515962 41.134732 11.721579 5.169143-16.890722-35.23754-10.265482 67.490082-63.84984z" fill="#FF8F3B" p-id="3154"></path><path d="M1387.077711 280.371418l-3.640242 30.068397c-0.728048 8.081337-1.456097 13.177675-1.456097 16.162673-4.36829-4.36829-16.162673-14.560967-35.23754-30.068396l-12.449627 5.169143 39.605831 30.796445-19.074867 8.081337 3.640242 8.809385 22.787913-8.809385 5.169143 12.449626-22.787913 8.809385 3.640242 8.809385 22.787913-8.809385 7.280483 17.61877 10.99353-4.36829-7.280483-17.61877 21.84145-8.809385-3.640241-8.809385-21.841451 8.809385-5.169143-12.449626 21.84145-8.809385-3.640241-8.809385-18.346819 7.280483 7.280484-49.871312-12.449627 4.36829z" fill="#FCDC06" p-id="3155"></path></svg>